<?xml version="1.0" encoding="utf-8"?>
<!-- Generator: Adobe Illustrator 27.7.0, SVG Export Plug-In . SVG Version: 6.00 Build 0)  -->
<svg version="1.1" id="visual" xmlns="http://www.w3.org/2000/svg" xmlns:xlink="http://www.w3.org/1999/xlink" x="0px" y="0px"
	 viewBox="0 0 900 100" style="enable-background:new 0 0 900 100;" xml:space="preserve">
<style type="text/css">
	.st0{fill:#F8F2F8;}
	.st1{fill:#B173B3;}
</style>
<rect class="st0" width="900" height="104.3"/>
<path class="st1" d="M-48.5,16L-37.6,28C-26.7,39.9-9.3,94.1,12.6,99c21.9,4.9,48.3-39.5,70.2-48.6s43.8-13.3,65.7-9.8
	s43.8,14.7,65.7,28.5c21.9,13.9,43.7,16.2,65.6,8.4c21.9-7.7,43.8-25.4,65.7-41.5c21.9-16.1,43.8-16.7,65.7-2
	c21.9,14.7,55.1,33.3,75,36.3c11.9,1.8,33.6-4.8,55.5-18.1c21.9-13.3,44.5-9.9,66.4-9.1c21.9,1,43.8,16.4,65.7,16.7
	c21.9,0.1,43.8-14.7,65.7-12.5c21.9,2.4,43.8,22,65.7,20.2c21.9-2,43.8-25.2,65.7-36.3c21.9-10.9,43.8-9.5,54.7-8.8l10.9,0.7V-5
	h-10.9c-10.9,0-32.8,0-54.7,0c-21.9,0-43.8,0-65.7,0s-43.8,0-65.7,0s-43.8,0-65.7,0c-21.9,0-43.8,0-65.7,0c-21.9,0-43.8,0-65.7,0
	s-43.8,0-65.7,0c-21.9,0-43.8,0-65.7,0c-21.9,0-43.8,0-65.7,0c-21.9,0-43.8,0-65.7,0c-21.9,0-43.8,0-65.7,0s-43.8,0-65.7,0
	s-43.8,0-65.7,0S39-5,17.1-5s-43.8,0-54.7,0h-10.9V16z"/>
</svg>
