<svg id="visual" viewBox="0 0 900 600" width="900" height="600" xmlns="http://www.w3.org/2000/svg" xmlns:xlink="http://www.w3.org/1999/xlink" version="1.1"><path d="M0 522L30 520.7C60 519.3 120 516.7 180 520C240 523.3 300 532.7 360 537C420 541.3 480 540.7 540 537.3C600 534 660 528 720 521.8C780 515.7 840 509.3 870 506.2L900 503L900 601L870 601C840 601 780 601 720 601C660 601 600 601 540 601C480 601 420 601 360 601C300 601 240 601 180 601C120 601 60 601 30 601L0 601Z" fill="#B173B3" stroke-linecap="round" stroke-linejoin="miter"></path></svg>