<?xml version="1.0" encoding="utf-8"?>
<!-- Generator: Adobe Illustrator 27.7.0, SVG Export Plug-In . SVG Version: 6.00 Build 0)  -->
<svg version="1.1" id="Layer_1" xmlns="http://www.w3.org/2000/svg" xmlns:xlink="http://www.w3.org/1999/xlink" x="0px" y="0px"
	 viewBox="0 0 24 24" style="enable-background:new 0 0 24 24;" xml:space="preserve">
<style type="text/css">
	.st0{display:none;}
	.st1{display:inline;fill:none;}
	.st2{fill:#B173B3;}
</style>
<g class="st0">
	<rect class="st1" width="24" height="24"/>
</g>
<g>
	<g>
		<g>
			<path class="st2" d="M19,7c0-1.1-0.9-2-2-2h-3v2h3v2.6L13.5,14H10V9H6c-2.2,0-4,1.8-4,4v3h2c0,1.7,1.3,3,3,3s3-1.3,3-3h4.5
				l4.5-5.6V7z M4,14v-1c0-1.1,0.9-2,2-2h2v3H4z M7,17c-0.6,0-1-0.5-1-1h2C8,16.5,7.6,17,7,17z"/>
			<rect x="5" y="6" class="st2" width="5" height="2"/>
			<path class="st2" d="M19,13c-1.7,0-3,1.3-3,3s1.3,3,3,3s3-1.3,3-3S20.7,13,19,13z M19,17c-0.5,0-1-0.5-1-1s0.5-1,1-1s1,0.4,1,1
				C20,16.5,19.5,17,19,17z"/>
		</g>
	</g>
</g>
</svg>
