<?xml version="1.0" encoding="utf-8"?>
<!-- Generator: Adobe Illustrator 27.7.0, SVG Export Plug-In . SVG Version: 6.00 Build 0)  -->
<svg version="1.1" id="Layer_1" xmlns="http://www.w3.org/2000/svg" xmlns:xlink="http://www.w3.org/1999/xlink" x="0px" y="0px"
	 viewBox="0 0 24 24" style="enable-background:new 0 0 24 24;" xml:space="preserve">
<style type="text/css">
	.st0{display:none;}
	.st1{display:inline;fill:none;}
	.st2{fill:#B173B3;}
</style>
<g class="st0">
	<rect class="st1" width="24" height="24"/>
</g>
<g>
	<g>
		<path class="st2" d="M18.4,6.2C17.8,3.2,15.1,1,12,1S6.2,3.2,5.6,6.2C4.1,6.8,3,8.3,3,10c0,2.2,1.8,4,4,4c0.1,0,0.2,0,0.3,0l4.7,9
			l4.6-9c0.1,0,0.2,0,0.3,0c2.2,0,4-1.8,4-4C21,8.3,19.9,6.8,18.4,6.2z M12.1,18.6l-2.7-5.2c0.8,0.4,1.7,0.6,2.7,0.6
			c0.9,0,1.9-0.2,2.7-0.6L12.1,18.6z M17,12c-0.5,0-1-0.2-1.4-0.6L15,10.9l-0.7,0.4C13.7,11.8,12.9,12,12,12s-1.7-0.2-2.4-0.7
			l-0.7-0.4l-0.6,0.5C8,11.8,7.5,12,7,12c-1.1,0-2-0.9-2-2c0-1,0.7-1.8,1.7-2l0.8-0.1l0.1-0.8C7.7,4.8,9.7,3,12,3s4.3,1.8,4.5,4.1
			l0.1,0.8L17.3,8c1,0.2,1.7,1,1.7,2C19,11.1,18.1,12,17,12z"/>
	</g>
</g>
</svg>
