<?xml version="1.0" encoding="utf-8"?>
<!-- Generator: Adobe Illustrator 27.7.0, SVG Export Plug-In . SVG Version: 6.00 Build 0)  -->
<svg version="1.1" id="Layer_1" xmlns="http://www.w3.org/2000/svg" xmlns:xlink="http://www.w3.org/1999/xlink" x="0px" y="0px"
	 viewBox="0 0 24 24" style="enable-background:new 0 0 24 24;" xml:space="preserve">
<style type="text/css">
	.st0{display:none;fill:none;}
	.st1{fill:#B173B3;}
</style>
<path class="st0" d="M0,0h24v24H0V0z"/>
<path class="st1" d="M3,2l2,18.2c0.1,1,1,1.8,2,1.8h10c1,0,1.9-0.8,2-1.8L21,2H3z M17,20L7,20L5.9,10h12.2L17,20z M18.3,8H5.7L5.2,4
	h13.5L18.3,8z M12,19c1.7,0,3-1.3,3-3c0-2-3-5.4-3-5.4S9,14,9,16C9,17.7,10.3,19,12,19z M12,13.9c0.6,0.9,1,1.7,1,2.1
	c0,0.5-0.4,1-1,1s-1-0.5-1-1C11,15.6,11.4,14.8,12,13.9z"/>
</svg>
